<svg id="Layer_1" data-name="Layer 1" xmlns="http://www.w3.org/2000/svg" viewBox="0 0 3768.5 2622.85"><defs><style>.cls-1{fill:#fff;}</style></defs><path class="cls-1" d="M290.06,2404.54a85.88,85.88,0,0,1-35.75-33.6q-12.59-21.6-12.58-49.9V2230.3q0-28.28,12.58-49.9a84.74,84.74,0,0,1,35.75-33.4q23.19-11.77,53.83-11.79,30.23,0,53.23,11.2t35.76,31.82q12.76,20.66,12.76,47.74,0,3.56-4.71,4.33l-46,2.75h-.78c-2.63,0-3.94-1.42-3.94-4.32q0-20.82-12.77-33.41t-33.58-12.57q-21.22,0-34,12.57t-12.77,33.41v94.68q0,20.41,12.77,33t34,12.57q20.81,0,33.58-12.57t12.77-33c0-2.88,1.59-4.31,4.72-4.31l46,1.94a5,5,0,0,1,3.33,1.2,3.57,3.57,0,0,1,1.38,2.74q0,27.12-12.76,47.93a85.36,85.36,0,0,1-35.76,32.22q-23,11.4-53.23,11.39Q313.25,2416.52,290.06,2404.54Z" transform="translate(-241.73 -247.63)"/><path class="cls-1" d="M710.63,2139.73a4.6,4.6,0,0,1,3.34-1.36h46a4.62,4.62,0,0,1,3.34,1.36,4.57,4.57,0,0,1,1.37,3.35v265.59a4.51,4.51,0,0,1-1.37,3.33,4.56,4.56,0,0,1-3.34,1.38H714a4.69,4.69,0,0,1-4.71-4.71V2300.23a1.73,1.73,0,0,0-2-2H620.46a1.72,1.72,0,0,0-2,2v108.44a4.71,4.71,0,0,1-4.73,4.71h-46a4.71,4.71,0,0,1-4.72-4.71V2143.08a4.68,4.68,0,0,1,4.72-4.71h46a4.68,4.68,0,0,1,4.73,4.71v105.69a1.73,1.73,0,0,0,2,2h86.83a1.74,1.74,0,0,0,2-2V2143.08A4.61,4.61,0,0,1,710.63,2139.73Z" transform="translate(-241.73 -247.63)"/><path class="cls-1" d="M1057.74,2409.45l-11.8-38.51c-.52-1-1.17-1.57-2-1.57H947.34c-.79,0-1.45.53-2,1.57L934,2409.45a4.93,4.93,0,0,1-5.11,3.93H879a4.41,4.41,0,0,1-3.54-1.38c-.78-.92-.9-2.28-.38-4.12l84.86-265.59a4.92,4.92,0,0,1,5.11-3.92h61.69a4.9,4.9,0,0,1,5.08,3.92l84.89,265.59a4.74,4.74,0,0,1,.38,1.95c0,2.38-1.45,3.55-4.32,3.55h-49.9A4.92,4.92,0,0,1,1057.74,2409.45Zm-96.66-82.88h69.15c1.56,0,2.09-.79,1.56-2.38l-35.34-116.67c-.27-1.05-.67-1.51-1.19-1.38s-.91.59-1.17,1.38l-34.58,116.67C959.25,2325.78,959.77,2326.57,961.08,2326.57Z" transform="translate(-241.73 -247.63)"/><path class="cls-1" d="M1388,2139.73a4.63,4.63,0,0,1,3.35-1.36h46a4.62,4.62,0,0,1,3.34,1.36,4.57,4.57,0,0,1,1.37,3.35v265.59a4.51,4.51,0,0,1-1.37,3.33,4.56,4.56,0,0,1-3.34,1.38h-44.4a5.61,5.61,0,0,1-5.49-3.14l-101.76-168.16c-.54-.78-1-1.12-1.57-1s-.79.71-.79,1.76l.79,165.8a4.71,4.71,0,0,1-4.73,4.71h-46a4.71,4.71,0,0,1-4.72-4.71V2143.08a4.68,4.68,0,0,1,4.72-4.71h44.39a5.65,5.65,0,0,1,5.51,3.13l101.36,167.38c.52.78,1.05,1.11,1.57,1s.79-.72.79-1.77l-.4-165A4.65,4.65,0,0,1,1388,2139.73Z" transform="translate(-241.73 -247.63)"/><path class="cls-1" d="M1610.12,2404.34a88.12,88.12,0,0,1-35.95-34q-12.76-21.79-12.76-50.46v-88q0-28.68,12.76-50.69a86.59,86.59,0,0,1,35.95-34q23.18-12,53.43-12,29.85,0,52.85,11.79t35.75,32a82.64,82.64,0,0,1,12.76,45v2.73a4.5,4.5,0,0,1-1.38,3.35,4.43,4.43,0,0,1-3.32,1.38h-46a4.47,4.47,0,0,1-3.34-1.38,4.53,4.53,0,0,1-1.38-3.35v-1.16q0-18.09-12.57-30.45t-33.4-12.39q-21.21,0-34,13.17t-12.77,34.38v91.16q0,21.21,13.77,34.36t35,13.17q20.42,0,32.62-10.81t12.18-30v-17.7a1.74,1.74,0,0,0-2-2h-44a4.73,4.73,0,0,1-4.72-4.71v-36.16a4.69,4.69,0,0,1,4.72-4.7h95.86a4.69,4.69,0,0,1,4.7,4.7v51.87q0,29.88-12.57,51.87a83.15,83.15,0,0,1-35.54,33.59q-23,11.59-53.25,11.58T1610.12,2404.34Z" transform="translate(-241.73 -247.63)"/><path class="cls-1" d="M1885.74,2412a4.47,4.47,0,0,1-1.37-3.33V2143.08a4.53,4.53,0,0,1,1.37-3.35,4.59,4.59,0,0,1,3.34-1.36h46a4.68,4.68,0,0,1,4.73,4.71v265.59a4.71,4.71,0,0,1-4.73,4.71h-46A4.53,4.53,0,0,1,1885.74,2412Z" transform="translate(-241.73 -247.63)"/><path class="cls-1" d="M2263.1,2404.54a85.82,85.82,0,0,1-35.75-33.6q-12.58-21.6-12.57-49.9V2230.3q0-28.28,12.57-49.9a84.69,84.69,0,0,1,35.75-33.4q23.18-11.77,53.82-11.79,30.24,0,53.25,11.2t35.75,31.82q12.76,20.66,12.75,47.74c0,2.37-1.55,3.81-4.69,4.33l-46,2.75h-.78c-2.64,0-3.95-1.42-3.95-4.32q0-20.82-12.77-33.41t-33.59-12.57q-21.21,0-34,12.57t-12.77,33.41v94.68q0,20.41,12.77,33t34,12.57q20.84,0,33.59-12.57t12.77-33c0-2.88,1.58-4.31,4.73-4.31l46,1.94a5.06,5.06,0,0,1,3.33,1.2,3.58,3.58,0,0,1,1.36,2.74q0,27.12-12.75,47.93a85.46,85.46,0,0,1-35.75,32.22q-23,11.4-53.25,11.39Q2286.29,2416.52,2263.1,2404.54Z" transform="translate(-241.73 -247.63)"/><path class="cls-1" d="M2683.66,2139.73a4.64,4.64,0,0,1,3.35-1.36h46a4.66,4.66,0,0,1,4.7,4.71v265.59a4.69,4.69,0,0,1-4.7,4.71h-46a4.66,4.66,0,0,1-4.7-4.71V2300.23a1.74,1.74,0,0,0-2-2H2593.5a1.73,1.73,0,0,0-2,2v108.44a4.69,4.69,0,0,1-4.72,4.71h-46a4.73,4.73,0,0,1-4.74-4.71V2143.08a4.69,4.69,0,0,1,4.74-4.71h46a4.66,4.66,0,0,1,4.72,4.71v105.69a1.73,1.73,0,0,0,2,2h86.84a1.74,1.74,0,0,0,2-2V2143.08A4.63,4.63,0,0,1,2683.66,2139.73Z" transform="translate(-241.73 -247.63)"/><path class="cls-1" d="M3030.79,2409.45l-11.8-38.51c-.52-1-1.17-1.57-1.95-1.57h-96.65c-.78,0-1.43.53-2,1.57L2907,2409.45a4.9,4.9,0,0,1-5.1,3.93H2852a4.41,4.41,0,0,1-3.54-1.38c-.78-.92-.91-2.28-.38-4.12L2933,2142.29a4.93,4.93,0,0,1,5.12-3.92h61.68a4.91,4.91,0,0,1,5.09,3.92l84.89,265.59a4.58,4.58,0,0,1,.38,1.95c0,2.38-1.45,3.55-4.33,3.55h-49.9A4.92,4.92,0,0,1,3030.79,2409.45Zm-96.65-82.88h69.14c1.57,0,2.1-.79,1.57-2.38l-35.34-116.67c-.26-1.05-.68-1.51-1.2-1.38s-.9.59-1.16,1.38l-34.58,116.67C2932.31,2325.78,2932.83,2326.57,2934.14,2326.57Z" transform="translate(-241.73 -247.63)"/><path class="cls-1" d="M3360.8,2148.58a74.71,74.71,0,0,1,30.46,30.05q10.78,19.44,10.79,44.6,0,24.75-11.2,43.61a76.38,76.38,0,0,1-31.42,29.28q-20.23,10.4-46.55,10.4H3257.1a1.74,1.74,0,0,0-2,2v100.19a4.69,4.69,0,0,1-4.7,4.71h-46a4.69,4.69,0,0,1-4.71-4.71v-266a4.68,4.68,0,0,1,4.71-4.7h110.8Q3341.15,2138,3360.8,2148.58Zm-24.74,103.13q11-10.42,11-27.31c0-11.49-3.67-20.83-11-27.89s-17-10.6-29.08-10.6H3257.1a1.73,1.73,0,0,0-2,2v72.28a1.74,1.74,0,0,0,2,2H3307Q3325,2262.12,3336.06,2251.71Z" transform="translate(-241.73 -247.63)"/><path class="cls-1" d="M3702.8,2184.53a4.62,4.62,0,0,1-3.35,1.38H3570.59a1.73,1.73,0,0,0-2,2v60.9a1.74,1.74,0,0,0,2,2h84.48a4.73,4.73,0,0,1,4.71,4.71v38.11a4.5,4.5,0,0,1-1.39,3.34,4.56,4.56,0,0,1-3.32,1.38h-84.48a1.73,1.73,0,0,0-2,2v63.65a1.73,1.73,0,0,0,2,1.95h128.86a4.7,4.7,0,0,1,4.72,4.74v38.1a4.69,4.69,0,0,1-4.72,4.71H3518a4.6,4.6,0,0,1-3.35-1.38,4.51,4.51,0,0,1-1.37-3.33V2143.08a4.57,4.57,0,0,1,1.37-3.35,4.66,4.66,0,0,1,3.35-1.36h181.5a4.66,4.66,0,0,1,4.72,4.71v38.1A4.55,4.55,0,0,1,3702.8,2184.53Z" transform="translate(-241.73 -247.63)"/><path class="cls-1" d="M3821.05,2412a4.54,4.54,0,0,1-1.36-3.33V2143.08a4.64,4.64,0,0,1,4.71-4.71h46a4.66,4.66,0,0,1,4.72,4.71v220.8a1.72,1.72,0,0,0,2,1.95h128.49a4.71,4.71,0,0,1,4.7,4.74v38.1a4.71,4.71,0,0,1-4.7,4.71H3824.4A4.58,4.58,0,0,1,3821.05,2412Z" transform="translate(-241.73 -247.63)"/><path class="cls-1" d="M787.43,2863.41l-11.79-38.5c-.52-1-1.17-1.58-1.95-1.58H677c-.79,0-1.46.53-2,1.58l-11.39,38.5a5,5,0,0,1-5.12,3.93H608.67a4.42,4.42,0,0,1-3.54-1.37c-.78-.92-.9-2.3-.38-4.13l84.86-265.58a4.93,4.93,0,0,1,5.11-3.93h61.69a4.92,4.92,0,0,1,5.09,3.93l84.88,265.58a4.72,4.72,0,0,1,.38,2c0,2.37-1.45,3.54-4.32,3.54h-49.9A4.94,4.94,0,0,1,787.43,2863.41Zm-96.65-82.9h69.15c1.57,0,2.09-.77,1.57-2.35l-35.36-116.68c-.25-1.05-.66-1.52-1.18-1.39s-.9.6-1.17,1.39l-34.58,116.68C689,2779.74,689.47,2780.51,690.78,2780.51Z" transform="translate(-241.73 -247.63)"/><path class="cls-1" d="M1117.65,2593.69a4.59,4.59,0,0,1,3.35-1.36h46a4.66,4.66,0,0,1,4.71,4.71v265.58a4.53,4.53,0,0,1-1.37,3.35,4.59,4.59,0,0,1-3.34,1.37h-44.4a5.61,5.61,0,0,1-5.49-3.14L1015.32,2696c-.54-.79-1.05-1.11-1.57-1s-.79.71-.79,1.75l.79,165.8a4.69,4.69,0,0,1-4.73,4.72H963.07a4.56,4.56,0,0,1-3.35-1.37,4.5,4.5,0,0,1-1.38-3.35V2597a4.68,4.68,0,0,1,4.73-4.71h44.38a5.64,5.64,0,0,1,5.51,3.15l101.37,167.36c.51.78,1,1.12,1.56,1s.79-.72.79-1.77l-.41-165A4.61,4.61,0,0,1,1117.65,2593.69Z" transform="translate(-241.73 -247.63)"/><path class="cls-1" d="M1295.63,2866a4.5,4.5,0,0,1-1.38-3.35V2597a4.68,4.68,0,0,1,4.73-4.71h98.21q29.46,0,51.66,10.41t34.38,29.25q12.18,18.89,12.19,43.63v108.43q0,24.75-12.19,43.61t-34.38,29.28q-22.21,10.38-51.66,10.4H1299A4.56,4.56,0,0,1,1295.63,2866Zm56-46.17h47.55q18.08,0,29.27-12.17T1440,2775v-90.34q0-20.43-11.19-32.62t-30.06-12.18h-47.15a1.73,1.73,0,0,0-1.95,2v176A1.71,1.71,0,0,0,1351.61,2819.8Z" transform="translate(-241.73 -247.63)"/><path class="cls-1" d="M1951.94,2592.33h46a4.68,4.68,0,0,1,4.71,4.71v265.58a4.69,4.69,0,0,1-4.71,4.72h-46a4.69,4.69,0,0,1-4.71-4.72V2689.37c0-1-.26-1.58-.78-1.58s-1,.39-1.58,1.2l-41.64,65.2a6.16,6.16,0,0,1-5.51,3.14h-23.18a6.1,6.1,0,0,1-5.48-3.14l-41.65-65.2c-.53-.81-1.05-1.13-1.58-1s-.79.73-.79,1.77v172.86a4.68,4.68,0,0,1-4.71,4.72h-46A4.58,4.58,0,0,1,1771,2866a4.53,4.53,0,0,1-1.38-3.35V2597a4.68,4.68,0,0,1,4.73-4.71h46a6.16,6.16,0,0,1,5.5,3.15l58.93,91.53q1.18,2.34,2.36,0l59.33-91.53A6.14,6.14,0,0,1,1951.94,2592.33Z" transform="translate(-241.73 -247.63)"/><path class="cls-1" d="M2174.12,2858.71a86.92,86.92,0,0,1-35.75-33.21q-12.76-21.39-12.76-49.3V2597a4.64,4.64,0,0,1,4.71-4.71h46A4.66,4.66,0,0,1,2181,2597v179.54q0,20.85,12.77,33.59t33.59,12.78q20.82,0,33.59-12.78t12.79-33.59V2597a4.64,4.64,0,0,1,4.7-4.71h46a4.66,4.66,0,0,1,4.71,4.71V2776.2q0,27.9-12.76,49.3a87,87,0,0,1-35.75,33.21q-23,11.77-53.25,11.77T2174.12,2858.71Z" transform="translate(-241.73 -247.63)"/><path class="cls-1" d="M2491,2860.46q-23.58-10-36.35-28.69t-12.77-43.39v-8.64a4.6,4.6,0,0,1,1.38-3.35,4.54,4.54,0,0,1,3.33-1.39h44.8a4.71,4.71,0,0,1,4.71,4.74v5.88q0,15.72,14.53,26.52t39.3,10.81q20.81,0,31-8.84t10.21-21.81a22,22,0,0,0-6.29-15.91q-6.3-6.49-17.1-11.38t-34.37-13.58q-26.33-9-44.59-18.45a89.82,89.82,0,0,1-30.65-25.74Q2445.8,2691,2445.79,2667q0-23.55,12.19-41.23t33.79-27.11q21.58-9.43,49.87-9.44,29.88,0,53.25,10.61t36.54,29.66q13.16,19.07,13.15,44.21v5.89a4.66,4.66,0,0,1-4.71,4.7h-45.19a4.71,4.71,0,0,1-4.71-4.7v-3.15q0-16.49-13.54-28.09t-37.13-11.61c-12.31,0-21.94,2.65-28.88,7.88S2500,2657,2500,2666.18a23.59,23.59,0,0,0,6.08,16.51c4.07,4.45,10.08,8.45,18.09,12s20.35,8.33,37.13,14.33q27.89,10.23,43.78,18.1t28.7,23.37q12.77,15.54,12.77,40.26,0,36.93-27.12,58.35T2546,2870.48Q2514.53,2870.48,2491,2860.46Z" transform="translate(-241.73 -247.63)"/><path class="cls-1" d="M2952,2638.49a4.6,4.6,0,0,1-3.36,1.37H2819.81a1.74,1.74,0,0,0-2,2v60.89a1.74,1.74,0,0,0,2,2h84.46a4.46,4.46,0,0,1,3.34,1.38,4.51,4.51,0,0,1,1.38,3.33v38.11a4.73,4.73,0,0,1-4.72,4.73h-84.46a1.72,1.72,0,0,0-2,2v63.65a1.73,1.73,0,0,0,2,2h128.85a4.68,4.68,0,0,1,3.36,1.37,4.6,4.6,0,0,1,1.36,3.35v38.1A4.56,4.56,0,0,1,2952,2866a4.64,4.64,0,0,1-3.36,1.37H2767.17a4.58,4.58,0,0,1-3.35-1.37,4.53,4.53,0,0,1-1.37-3.35V2597a4.66,4.66,0,0,1,4.72-4.71h181.49a4.65,4.65,0,0,1,4.72,4.71v38.11A4.55,4.55,0,0,1,2952,2638.49Z" transform="translate(-241.73 -247.63)"/><path class="cls-1" d="M3115.46,2858.71a86.74,86.74,0,0,1-35.75-33.21q-12.77-21.39-12.78-49.3V2597a4.66,4.66,0,0,1,4.72-4.71h46a4.69,4.69,0,0,1,4.73,4.71v179.54q0,20.85,12.75,33.59t33.59,12.78q20.82,0,33.59-12.78t12.78-33.59V2597a4.68,4.68,0,0,1,4.72-4.71h46a4.69,4.69,0,0,1,4.72,4.71V2776.2q0,27.9-12.77,49.3a86.92,86.92,0,0,1-35.75,33.21q-23,11.77-53.25,11.77T3115.46,2858.71Z" transform="translate(-241.73 -247.63)"/><path class="cls-1" d="M3575.33,2592.33h46a4.52,4.52,0,0,1,3.32,1.36A4.57,4.57,0,0,1,3626,2597v265.58a4.69,4.69,0,0,1-4.7,4.72h-46A4.59,4.59,0,0,1,3572,2866a4.53,4.53,0,0,1-1.37-3.35V2689.37c0-1-.27-1.58-.79-1.58s-1,.39-1.56,1.2l-41.65,65.2a6.17,6.17,0,0,1-5.51,3.14h-23.18a6.13,6.13,0,0,1-5.49-3.14l-41.66-65.2c-.51-.81-1-1.13-1.55-1s-.79.73-.79,1.77v172.86a4.68,4.68,0,0,1-4.73,4.72h-46a4.61,4.61,0,0,1-3.35-1.37,4.56,4.56,0,0,1-1.37-3.35V2597a4.66,4.66,0,0,1,4.72-4.71h46a6.2,6.2,0,0,1,5.52,3.15l58.92,91.53c.79,1.56,1.57,1.56,2.36,0l59.32-91.53A6.15,6.15,0,0,1,3575.33,2592.33Z" transform="translate(-241.73 -247.63)"/><polygon class="cls-1" points="1993.14 79.78 1880.12 0 1880.12 0 1880.12 167.3 1880.12 1549.04 2016.79 1549.04 2016.79 263.77 2199.04 392.42 2199.04 1549.04 2335.72 1549.04 2335.72 488.9 2517.97 617.54 2517.97 1549.04 2654.65 1549.04 2654.65 546.72 1993.14 79.78"/><polygon class="cls-1" points="1470.09 1549.04 1743.43 1549.04 1743.43 1412.37 1606.76 1412.37 1606.76 751.56 1743.43 655.07 1743.43 487.76 1470.09 680.73 1470.09 1549.04"/><polygon class="cls-1" points="1105.6 1549.04 1378.96 1549.04 1378.96 1412.37 1242.28 1412.37 1242.28 613.73 1743.43 259.96 1743.43 96.48 1105.6 546.72 1105.6 1549.04"/></svg>